<svg xmlns="http://www.w3.org/2000/svg" viewBox="0 0 128 128" fill="161616">
    <path d="M11.84,75.48A20.3,20.3,0,0,1,5,74.55a6.13,6.13,0,0,1-3.53-3.13,14.37,14.37,0,0,1-1-6V45.24a14.36,14.36,0,0,1,1-6A6.1,6.1,0,0,1,5,36.1a20.27,20.27,0,0,1,6.88-.94,20,20,0,0,1,6.84.94,6.11,6.11,0,0,1,3.49,3.13,14.36,14.36,0,0,1,1,6V65.4a14.37,14.37,0,0,1-1,6,6.14,6.14,0,0,1-3.49,3.13A20,20,0,0,1,11.84,75.48ZM4.92,53H18.75V45.32a9.58,9.58,0,0,0-.54-3.64,3.14,3.14,0,0,0-2-1.76,14.05,14.05,0,0,0-4.35-.51,14.1,14.1,0,0,0-4.32.51,3.17,3.17,0,0,0-2.06,1.76,9.58,9.58,0,0,0-.54,3.64Zm6.92,18.21a14.11,14.11,0,0,0,4.35-.5,3.17,3.17,0,0,0,2-1.8,9.6,9.6,0,0,0,.54-3.6V57.12H4.92v8.14a9.6,9.6,0,0,0,.54,3.6,3.19,3.19,0,0,0,2.06,1.8A14.15,14.15,0,0,0,11.84,71.16ZM46.68,95.5A2.49,2.49,0,0,1,45,94.89a2.37,2.37,0,0,1-.75-1.69,2.34,2.34,0,0,1,2.23-2.38c2.88-.1,4.79-.49,5.72-1.19s1.41-2,1.41-4.07V69.15H36.1q-1.23,10-6.34,16.16a34.82,34.82,0,0,1-13.68,9.76,3,3,0,0,1-2,.14,2.32,2.32,0,0,1-1.44-3A2.18,2.18,0,0,1,13.92,91Q23,87.59,27.5,80.88T32,62.45V42.87q0-5.55,2.37-7.71C36,33.72,38.76,33,42.8,33h4.53q6,0,8.43,2.16t2.37,7.71V86.36q0,4.81-2.41,7T46.68,95.5ZM36.39,65H53.6v-12H36.46V63.75A11.15,11.15,0,0,1,36.39,65ZM36.46,49H53.6V43.08c0-2.25-.45-3.78-1.34-4.57s-2.6-1.19-5.14-1.19H43q-3.81,0-5.18,1.19c-.91.79-1.37,2.32-1.37,4.57Z"/><path d="M64.83,93.56a2.09,2.09,0,1,1,0-4.18H93.27V82H74.76a1.91,1.91,0,0,1-1.44-.62A2.07,2.07,0,0,1,72.75,80a2,2,0,0,1,.57-1.41,1.94,1.94,0,0,1,1.44-.61H93.27V71.16H75.34A50.68,50.68,0,0,1,71.88,75q-1.8,1.8-3.45,3.31a2.92,2.92,0,0,1-1.66.65,2.09,2.09,0,0,1-1.65-.58,2.15,2.15,0,0,1-.62-1.51,1.76,1.76,0,0,1,.69-1.51A61.19,61.19,0,0,0,69.69,71c1.61-1.7,3.15-3.5,4.64-5.4A51.83,51.83,0,0,0,78,60.36a2.44,2.44,0,0,1,1.37-1A2.1,2.1,0,0,1,81,59.5a1.93,1.93,0,0,1,.79,2.88c-.48.77-1,1.54-1.51,2.3s-1.11,1.56-1.73,2.38H93.27V60a2.15,2.15,0,0,1,.43-1.44H86.64a22.38,22.38,0,0,1-7.84-1.11,7.14,7.14,0,0,1-4.07-3.64A16.08,16.08,0,0,1,73.54,47V44a15.82,15.82,0,0,1,1.19-6.73,7.11,7.11,0,0,1,4.07-3.6,22.12,22.12,0,0,1,7.84-1.12h17.57A21.83,21.83,0,0,1,112,33.62a7.23,7.23,0,0,1,4.07,3.6A15.32,15.32,0,0,1,117.32,44V47a15.57,15.57,0,0,1-1.23,6.77A7.26,7.26,0,0,1,112,57.45a22.08,22.08,0,0,1-7.81,1.11H97.44A2.16,2.16,0,0,1,97.88,60v7.06h22.68a1.93,1.93,0,0,1,1.4.61,2,2,0,0,1,.61,1.48,2.09,2.09,0,0,1-2,2H97.88v6.77h18.79a2,2,0,0,1,1.47.61,2,2,0,0,1,.62,1.41A2.12,2.12,0,0,1,116.67,82H97.88v7.34h27.64a2.09,2.09,0,0,1,0,4.18Zm13.32-50h34.56q-.08-4.19-1.84-5.62t-6.66-1.44H86.64Q81.75,36.53,80,38T78.15,43.59Zm8.49,10.94h17.57q4.91,0,6.66-1.47t1.84-5.58H78.15q.07,4.1,1.83,5.58T86.64,54.53Z"/>
</svg>